<svg xmlns="http://www.w3.org/2000/svg" xmlns:xlink="http://www.w3.org/1999/xlink" width="500" zoomAndPan="magnify" viewBox="0 0 375 339.749992" height="453" preserveAspectRatio="xMidYMid meet" version="1.0"><defs><clipPath id="03ecd2dc9e"><path d="M 35.40625 115.300781 L 374.839844 115.300781 L 374.839844 167.707031 L 35.40625 167.707031 Z M 35.40625 115.300781 " clip-rule="nonzero"/></clipPath><clipPath id="fceefa1af6"><path d="M 35.40625 171.570312 L 374.839844 171.570312 L 374.839844 224.53125 L 35.40625 224.53125 Z M 35.40625 171.570312 " clip-rule="nonzero"/></clipPath><clipPath id="121117f93b"><path d="M 80.59375 285 L 329.675781 285 L 329.675781 339.488281 L 80.59375 339.488281 Z M 80.59375 285 " clip-rule="nonzero"/></clipPath><clipPath id="1fbbbeb432"><path d="M 51 158.332031 L 373.761719 158.332031 L 373.761719 339.488281 L 51 339.488281 Z M 51 158.332031 " clip-rule="nonzero"/></clipPath><clipPath id="247385cafd"><path d="M 70.125 258.183594 L 334 258.183594 L 334 339.488281 L 70.125 339.488281 Z M 70.125 258.183594 " clip-rule="nonzero"/></clipPath></defs><g clip-path="url(#03ecd2dc9e)"><path fill="#f27022" d="M 374.84375 167.539062 C 374.609375 149.3125 371.519531 131.773438 365.984375 115.363281 L 44.640625 115.363281 C 39.101562 131.773438 36.011719 149.3125 35.78125 167.539062 L 374.84375 167.539062 " fill-opacity="1" fill-rule="nonzero"/></g><path fill="#f49334" d="M 46.203125 110.957031 L 364.417969 110.957031 C 357.308594 91.675781 346.804688 74.042969 333.628906 58.785156 L 76.996094 58.785156 C 63.816406 74.042969 53.3125 91.675781 46.203125 110.957031 " fill-opacity="1" fill-rule="nonzero"/><g clip-path="url(#fceefa1af6)"><path fill="#eb362f" d="M 365.984375 224.121094 C 371.519531 207.710938 374.609375 190.175781 374.84375 171.949219 L 35.78125 171.949219 C 36.011719 190.175781 39.101562 207.710938 44.640625 224.121094 L 365.984375 224.121094 " fill-opacity="1" fill-rule="nonzero"/></g><g clip-path="url(#121117f93b)"><path fill="#093950" d="M 80.949219 285.113281 C 111.917969 318.550781 156.167969 339.488281 205.3125 339.488281 C 254.453125 339.488281 298.707031 318.550781 329.671875 285.113281 L 80.949219 285.113281 " fill-opacity="1" fill-rule="nonzero"/></g><path fill="#ffc44d" d="M 329.671875 54.375 C 298.707031 20.933594 254.453125 -0.00390625 205.3125 -0.00390625 C 156.167969 -0.00390625 111.917969 20.933594 80.949219 54.375 L 329.671875 54.375 " fill-opacity="1" fill-rule="nonzero"/><path fill="#ffffff" d="M 322.460938 110.957031 C 322.460938 126.457031 309.910156 139.019531 294.429688 139.019531 C 278.945312 139.019531 266.394531 126.457031 266.394531 110.957031 C 266.394531 95.457031 278.945312 82.890625 294.429688 82.890625 C 309.910156 82.890625 322.460938 95.457031 322.460938 110.957031 " fill-opacity="1" fill-rule="nonzero"/><g clip-path="url(#1fbbbeb432)"><path fill="#04b09a" d="M 373.382812 192.039062 C 356.304688 172.023438 336.289062 157.070312 315.324219 158.941406 C 287.4375 161.429688 256.496094 189.304688 231.671875 217.917969 C 212.554688 197.9375 190.550781 182.121094 169.5 183.4375 C 134.171875 185.648438 82.996094 217.71875 51.074219 240.242188 C 77.824219 298.769531 136.820312 339.433594 205.3125 339.433594 C 291.378906 339.433594 362.464844 275.21875 373.382812 192.039062 " fill-opacity="1" fill-rule="nonzero"/></g><path fill="#ffffff" d="M 51.324219 240.070312 C 83.261719 217.554688 134.265625 185.640625 169.5 183.4375 C 170.324219 183.382812 171.140625 183.359375 171.96875 183.359375 C 192.265625 183.359375 213.300781 198.71875 231.671875 217.917969 C 256.496094 189.304688 287.4375 161.429688 315.324219 158.941406 C 316.515625 158.835938 317.703125 158.78125 318.886719 158.78125 C 338.519531 158.78125 357.207031 173.113281 373.296875 191.9375 C 373.558594 189.992188 373.796875 188.035156 373.992188 186.0625 C 355.222656 165.050781 336.699219 154.375 318.886719 154.375 C 317.570312 154.375 316.238281 154.433594 314.933594 154.550781 C 291.183594 156.671875 263.125 175.804688 231.5 211.433594 C 209.972656 189.875 189.960938 178.953125 171.96875 178.953125 C 171.050781 178.953125 170.128906 178.980469 169.226562 179.035156 C 134.128906 181.230469 84.941406 211.046875 49.496094 235.96875 C 50.085938 237.34375 50.699219 238.710938 51.324219 240.070312 " fill-opacity="1" fill-rule="nonzero"/><path fill="#093950" d="M 148.132812 294.722656 C 139.730469 260.230469 122.320312 215.542969 86.269531 183.046875 L 107.425781 181.105469 L 99.742188 175.433594 C 99.742188 175.433594 112.988281 171.347656 124.265625 173.183594 L 119.109375 166.75 C 119.109375 166.75 140.90625 166.003906 146.496094 169.347656 L 139.933594 162.234375 C 139.933594 162.234375 164.023438 161.109375 173.796875 167.070312 C 173.796875 167.070312 160.785156 140.40625 120.617188 146.066406 C 95.214844 149.644531 85.261719 163.757812 81.375 173.648438 C 82.25 166.300781 85.183594 150.375 94.539062 143.078125 L 86.222656 143.304688 L 99.257812 127.125 L 91.796875 128.796875 L 107.652344 104.285156 C 107.652344 104.285156 81.988281 109.78125 74.03125 130.515625 C 68.917969 143.839844 71.980469 160.378906 74.820312 170.496094 C 70.503906 164.28125 60.503906 153.457031 41.898438 150.511719 C 15.347656 146.308594 2.894531 161.984375 2.894531 161.984375 L 24.375 160.730469 L 18.40625 165.046875 L 37.289062 162.777344 L 33.558594 167.066406 L 51.613281 168.546875 L 45.535156 172.605469 L 63.128906 177.292969 C 53.703125 177.542969 39.25 179.769531 24.734375 189.136719 C 0.113281 205.03125 6.132812 236.507812 6.132812 236.507812 C 6.132812 236.507812 12.011719 222.421875 18.65625 217.683594 L 20.59375 224.144531 L 26.316406 208.367188 L 29.359375 214.191406 L 44.117188 197.226562 L 44.128906 203.234375 C 44.128906 203.234375 55.6875 193.324219 75.410156 183.945312 C 69.3125 189.328125 54.414062 204.503906 47.675781 229.253906 C 39.09375 260.78125 67.179688 277.820312 67.179688 277.820312 L 62.125 247.425781 L 70.8125 252.25 C 70.8125 252.25 66.933594 239.925781 68.058594 231.332031 L 75.636719 235.777344 C 75.636719 235.777344 72.410156 218.851562 73.796875 210.46875 L 80.40625 218.714844 C 80.40625 218.714844 76.773438 198.394531 80.683594 189.460938 C 88.675781 195.210938 118.394531 221.144531 130.457031 294.722656 L 148.132812 294.722656 " fill-opacity="1" fill-rule="nonzero"/><path fill="#00979e" d="M 310.0625 186.863281 C 292.082031 193.476562 348.179688 197.886719 329.671875 218.097656 C 311.167969 238.304688 294.453125 246.019531 326.664062 251.898438 C 336.808594 253.75 343.28125 257.730469 347.394531 262.3125 C 360.898438 241.582031 370.011719 217.714844 373.382812 192.039062 C 356.304688 172.023438 336.289062 157.070312 315.324219 158.941406 C 313.582031 159.097656 311.828125 159.351562 310.0625 159.699219 C 310.0625 159.699219 328.042969 180.25 310.0625 186.863281 " fill-opacity="1" fill-rule="nonzero"/><path fill="#00979e" d="M 249.03125 269.136719 C 249.03125 269.136719 241.78125 240.445312 233.265625 216.097656 C 232.734375 216.703125 232.199219 217.308594 231.671875 217.917969 C 213.152344 198.5625 191.925781 183.113281 171.476562 183.363281 C 168.097656 189.96875 166.859375 197.773438 176.105469 201.929688 C 194.089844 210.011719 201.429688 231.320312 182.34375 237.933594 C 163.261719 244.550781 205.3125 263.683594 205.3125 263.683594 L 249.03125 269.136719 " fill-opacity="1" fill-rule="nonzero"/><path fill="#093950" d="M 271.277344 116.035156 C 251.917969 105.910156 233.453125 104.777344 221.546875 105.554688 L 243.171875 97.613281 L 235.042969 93.207031 L 257.621094 89.25 L 252.425781 84.277344 L 276.472656 84.957031 L 268.457031 80.210938 L 295.664062 79.304688 C 295.664062 79.304688 278.164062 61 245.203125 69.359375 C 222.105469 75.222656 210.757812 90.011719 206.035156 98.34375 C 208.445312 85.269531 210.398438 64.082031 202.417969 47.886719 C 190 22.683594 157.035156 18.730469 157.035156 18.730469 L 179.839844 47.777344 L 170.246094 46.53125 L 188.53125 65.40625 L 178.03125 66.082031 C 190.65625 74.195312 196.191406 93.917969 198.140625 103.078125 C 192.105469 91.066406 177.9375 74.4375 145.523438 72.863281 C 94.269531 70.378906 80.949219 105.472656 80.949219 105.472656 C 92.578125 96.832031 123.054688 95.46875 123.054688 95.46875 L 115.605469 105.1875 C 122.265625 100.328125 149.808594 98.746094 149.808594 98.746094 L 144.054688 107.445312 C 158.050781 103.832031 175.210938 107.445312 175.210938 107.445312 L 166.179688 115.480469 L 193.0625 115.480469 C 140.703125 172.15625 127.636719 249.675781 124.679688 294.292969 L 149.117188 294.292969 C 149.105469 175.378906 190.402344 131.976562 200.835938 122.910156 C 206.792969 133.714844 204.5625 159.734375 204.5625 159.734375 L 211.9375 148.582031 C 214.644531 158.980469 212.539062 180.679688 212.539062 180.679688 L 221.570312 174.199219 C 223.980469 184.898438 220.515625 200.871094 220.515625 200.871094 L 230.902344 193.789062 L 228.042969 232.667969 C 228.042969 232.667969 261.457031 207.953125 247.007812 169.226562 C 235.667969 138.828125 215.144531 121.429688 206.84375 115.355469 C 232.769531 124.886719 248.476562 136.039062 248.476562 136.039062 L 247.796875 128.464844 L 268.34375 148.132812 L 271.503906 140.445312 L 280.539062 159.65625 L 282.230469 151.296875 C 291.148438 156.496094 300.179688 173.558594 300.179688 173.558594 C 300.179688 173.558594 304.128906 133.214844 271.277344 116.035156 " fill-opacity="1" fill-rule="nonzero"/><g clip-path="url(#247385cafd)"><path fill="#093950" d="M 333.992188 280.199219 C 268.953125 272.46875 170.570312 256.71875 128.882812 258.386719 C 104.082031 259.382812 84.195312 266.230469 70.597656 272.75 C 101.582031 313.28125 150.390625 339.433594 205.3125 339.433594 C 256.789062 339.433594 302.902344 316.457031 333.992188 280.199219 " fill-opacity="1" fill-rule="nonzero"/></g><path fill="#ffffff" d="M 71.992188 274.5625 C 85.382812 268.203125 104.851562 261.558594 128.972656 260.59375 C 159.378906 259.355469 221.578125 267.675781 276.449219 274.996094 C 296.203125 277.632812 315.296875 280.179688 332.238281 282.210938 C 333.410156 280.882812 334.566406 279.546875 335.699219 278.183594 C 318.082031 276.105469 297.917969 273.414062 277.03125 270.628906 C 221.984375 263.28125 159.589844 254.953125 128.796875 256.1875 C 103.265625 257.207031 82.988281 264.246094 69.207031 270.914062 C 70.121094 272.140625 71.046875 273.359375 71.992188 274.5625 " fill-opacity="1" fill-rule="nonzero"/></svg>